<?xml version="1.0" encoding="utf-8"?>
<!-- Generator: Adobe Illustrator 19.2.0, SVG Export Plug-In . SVG Version: 6.00 Build 0)  -->
<svg version="1.1" id="Layer_1" xmlns="http://www.w3.org/2000/svg" xmlns:xlink="http://www.w3.org/1999/xlink" x="0px" y="0px"
	 viewBox="0 0 612 612" style="enable-background:new 0 0 612 612;" xml:space="preserve">
<style type="text/css">
	.st0{fill:none;}
	.st1{fill:#5A5A5C;}
</style>
<rect class="st0" width="612" height="612"/>
<path class="st1" d="M388.9,481c-14.9,0-30.8-3.5-47.6-10.4C305.6,456,272,428.4,249.9,409c-26.1-22.9-55.8-49.9-79-81.5
	c-25.9-35.3-38.9-69.9-39.7-105.6c-0.6-28.8,10.5-57,29.1-73.8c14.7-13.2,33.2-18.9,53.5-16.5l0,0c11.3,1.4,14.3,11.4,20.9,33.5
	c1.2,3.9,2.5,8.4,4,13.2c2.1,6.6,3.9,12.4,5.4,17.4c10.4,33.2,11.8,37.4,8.8,45.4c-7,19.1-27.5,33.4-33.1,37
	c0.8,2.1,4.1,8.1,17.6,22.5c10.5,11.4,25.3,25.7,41.4,40.2c33.5,30.3,60,50.3,67.7,53.3c5.3-10,26.2-46.8,47.1-49.3
	c8.8-1,31.9,11.8,44.9,19.5c3.5,2.1,33.9,20.2,38.8,28.5c5.3,8.8,4.2,20.5-3.1,33.9c-6.1,11-16,22.7-28.2,32.9
	C429.3,473.9,410.1,481,388.9,481z M204.7,139.2c-14.6,0-27.9,5.1-38.8,14.9c-16.8,15.1-26.9,41.1-26.4,67.5
	c0.7,34.1,13.2,67.1,38,100.9c22.7,30.9,52.1,57.7,77.8,80.2c21.7,19.1,54.6,46.1,89,60.2c17.8,7.3,34.4,10.5,49.5,9.6
	c17.2-1,33-7.5,46.9-19.1c21-17.5,37.8-42.5,29.6-56.3c-1.9-3.2-16.2-13.9-35.9-25.6c-21.3-12.7-36.1-18.8-39.8-18.4
	c-15.6,1.8-35.5,34.4-41.8,46.8c-0.4,0.8-2.1,3.4-6,2.8c-13.5-1.9-66.6-49.6-72.7-55c-14-12.6-59.7-54.8-62.5-68.7
	c-0.7-3,0.4-5.7,2.6-7.1c0.2-0.2,24-14.7,30.9-33.7c1.9-5.3,1.1-8.3-8.9-40.2c-1.6-5.1-3.4-10.9-5.4-17.5c-1.6-4.9-2.9-9.4-4-13.3
	c-6.1-20.5-8.3-27-14-27.7l0,0C210.1,139.4,207.4,139.2,204.7,139.2z"/>
</svg>
