<?xml version="1.0" encoding="utf-8"?>
<!-- Generator: Adobe Illustrator 19.2.0, SVG Export Plug-In . SVG Version: 6.00 Build 0)  -->
<svg version="1.1" id="Layer_1" xmlns="http://www.w3.org/2000/svg" xmlns:xlink="http://www.w3.org/1999/xlink" x="0px" y="0px"
	 viewBox="0 0 100 100" style="enable-background:new 0 0 100 100;" xml:space="preserve">
<style type="text/css">
	.st0{fill:#2EA0DD;}
</style>
<g>
	<path class="st0" d="M22.2,64.6c-1.3,0-3.8-0.9-5.3-4.1l-11-28.4C5.8,32,4.9,30,6,28.4c0.4-0.8,1.5-1.5,3.6-1.6l58.3-0.1l5.2-0.1
		l4.4-11.9c0.3-1.1,1.6-2.1,2.8-2.1h1.3c1.9,0,5.3-0.1,7.7,0h0.2c1.9,0,3.5,0.9,4.4,2.5c0.9,1.5,0.9,3.5,0,5c-1,1.6-2.7,2.4-4.9,2.4
		l0,0l0,0l0,0c-0.1,0-0.2,0-0.2,0H78.1L63.9,61.3c-0.4,1.1-1.7,3-4.4,3.2L22.2,64.6z M9.5,30c-0.5,0-0.8,0.1-0.8,0.1
		c0,0.1,0.1,0.5,0.2,0.6l11.2,28.4c1,1.9,2.2,2.2,2.3,2.2l37-0.1c1-0.1,1.4-1.1,1.4-1.1L72,29.9h-4L9.5,30L9.5,30z M89.2,19.3
		L89.2,19.3c0.8,0,1.5-0.1,1.9-0.8c0.3-0.4,0.2-1.1,0-1.6c-0.2-0.3-0.6-0.8-1.4-0.8c-0.1,0-0.2,0-0.3,0c-2.4-0.1-5.6-0.1-7.6,0h-1.1
		l-1.3,3.2L89.2,19.3z M80.4,16L80.4,16L80.4,16z"/>
	<path class="st0" d="M18.5,87.5c-5.4,0-9.7-4.3-9.7-9.7c0-5.4,4.3-9.7,9.7-9.7s9.7,4.3,9.7,9.7C28.3,83.1,23.8,87.5,18.5,87.5z
		 M18.5,71.4c-3.5,0-6.4,2.8-6.4,6.4c0,3.6,2.8,6.4,6.4,6.4s6.4-2.8,6.4-6.4C24.9,74.2,22,71.4,18.5,71.4z"/>
	<path class="st0" d="M62.1,87.5c-5.4,0-9.7-4.3-9.7-9.7c0-5.4,4.3-9.7,9.7-9.7s9.7,4.3,9.7,9.7C71.8,83.1,67.5,87.5,62.1,87.5z
		 M62.1,71.4c-3.5,0-6.4,2.8-6.4,6.4c0,3.6,2.8,6.4,6.4,6.4c3.5,0,6.4-2.8,6.4-6.4C68.5,74.2,65.6,71.4,62.1,71.4z"/>
</g>
</svg>
