<svg id="Layer_1" xmlns="http://www.w3.org/2000/svg" viewBox="0 0 612 612"><style>.st0{fill:none}.st1{fill:#5a5a5c}</style><path class="st0" d="M0 0h612v612H0z"/><path class="st1" d="M388.9 481c-14.9 0-30.8-3.5-47.6-10.4-35.7-14.6-69.3-42.2-91.4-61.6-26.1-22.9-55.8-49.9-79-81.5-25.9-35.3-38.9-69.9-39.7-105.6-.6-28.8 10.5-57 29.1-73.8 14.7-13.2 33.2-18.9 53.5-16.5 11.3 1.4 14.3 11.4 20.9 33.5 1.2 3.9 2.5 8.4 4 13.2 2.1 6.6 3.9 12.4 5.4 17.4 10.4 33.2 11.8 37.4 8.8 45.4-7 19.1-27.5 33.4-33.1 37 .8 2.1 4.1 8.1 17.6 22.5 10.5 11.4 25.3 25.7 41.4 40.2 33.5 30.3 60 50.3 67.7 53.3 5.3-10 26.2-46.8 47.1-49.3 8.8-1 31.9 11.8 44.9 19.5 3.5 2.1 33.9 20.2 38.8 28.5 5.3 8.8 4.2 20.5-3.1 33.9-6.1 11-16 22.7-28.2 32.9-16.7 14.3-35.9 21.4-57.1 21.4zM204.7 139.2c-14.6 0-27.9 5.1-38.8 14.9-16.8 15.1-26.9 41.1-26.4 67.5.7 34.1 13.2 67.1 38 100.9 22.7 30.9 52.1 57.7 77.8 80.2 21.7 19.1 54.6 46.1 89 60.2 17.8 7.3 34.4 10.5 49.5 9.6 17.2-1 33-7.5 46.9-19.1 21-17.5 37.8-42.5 29.6-56.3-1.9-3.2-16.2-13.9-35.9-25.6-21.3-12.7-36.1-18.8-39.8-18.4-15.6 1.8-35.5 34.4-41.8 46.8-.4.8-2.1 3.4-6 2.8-13.5-1.9-66.6-49.6-72.7-55-14-12.6-59.7-54.8-62.5-68.7-.7-3 .4-5.7 2.6-7.1.2-.2 24-14.7 30.9-33.7 1.9-5.3 1.1-8.3-8.9-40.2-1.6-5.1-3.4-10.9-5.4-17.5-1.6-4.9-2.9-9.4-4-13.3-6.1-20.5-8.3-27-14-27.7-2.7-.1-5.4-.3-8.1-.3z"/></svg>