<?xml version="1.0" encoding="utf-8"?>
<!-- Generator: Adobe Illustrator 19.2.1, SVG Export Plug-In . SVG Version: 6.00 Build 0)  -->
<svg version="1.1" xmlns="http://www.w3.org/2000/svg" xmlns:xlink="http://www.w3.org/1999/xlink" x="0px" y="0px"
	 viewBox="0 0 150 150" style="enable-background:new 0 0 150 150;" xml:space="preserve">
<style type="text/css">
	.st0{fill:#818285;}
	.st1{display:none;fill:none;}
	.st2{display:none;fill:#818285;}
</style>
<g id="Layer_1">
	
		<image style="display:none;overflow:visible;" width="313" height="199" xlink:href="../../../../../Desktop/Screen Shot 2016-09-07 at 3.13.31 PM.png"  transform="matrix(1.1875 0 0 1.1875 -109.6746 -29)">
	</image>
</g>
<g id="Layer_2">
	<g>
		<path class="st0" d="M74.9,47.6c20.4,0,37.2,9.3,48,19.4c1,0.9,2.4,1,3.3,0.1l8.1-8.1c0.9-0.9,0.9-2.2,0.1-3.2
			c-12.3-14.1-34.3-23.4-59.4-23.4c-25.4,0-47.6,9.6-59.9,24c-0.8,0.9-0.7,2.2,0.2,3.1l7.8,7.8c0.9,0.9,2.4,0.8,3.3-0.1
			C38.6,56.2,54,47.6,74.9,47.6z"/>
		<path class="st0" d="M74.8,70.9c8.7-0.4,18,2.6,31.6,12.2c1.1,0.8,2.4,1,3.3,0.1l8.1-8.1c0.9-0.9,1-2.3,0.1-3.2
			c-12.9-12.1-29.5-16.7-42.8-16.6c-17.7,0.1-31.1,6.1-43.2,16.7c-0.9,0.8-0.7,2.2,0.2,3.1l7.8,7.8c0.9,0.9,2,0.8,3.3-0.1
			C60.8,70.6,69.8,71.1,74.8,70.9z"/>
		<path class="st0" d="M74.5,94.3c7.1-0.1,13.2,3.3,15.4,5.3c1,0.9,2.4,1,3.3,0.1l8.1-8.1c0.9-0.9,1-2.3,0.1-3.2
			c-4.2-3.9-16.6-9.9-25.9-9.6c-17.7,0.6-24.7,8-26.9,10c-0.9,0.8-0.7,2.2,0.2,3.1l8.2,8.1c0.9,0.9,2.1,0.9,3.3-0.1
			C66.6,94.9,70.9,94.4,74.5,94.3z"/>
		<path class="st0" d="M67.1,104.2c0,0,9.2-4.8,16.4,0.5c0,0,3,1.7,0.6,4.3l-6.5,6.5c0,0-2.3,2.6-4.8,0l-6.7-6.5
			C66.1,109,62.3,106.2,67.1,104.2z"/>
	</g>
	<path class="st1" d="M119.5,39.2H31.4c-1,0-1.8,0.8-1.8,1.8v52.9c0,1,0.8,1.8,1.8,1.8h88.1c1,0,1.8-0.8,1.8-1.8V41
		C121.2,40,120.4,39.2,119.5,39.2z"/>
	<path class="st2" d="M119.2,32H31.5c-5.1,0-9.2,4.1-9.2,9.2v52.1c0,5.1,4.1,9.2,9.2,9.2H72c0,0.1,0,0.3,0,0.4v6.9H52.2
		c-0.9,0-1.6,0.7-1.6,1.6v3.9c0,0.9,0.7,1.6,1.6,1.6h46.5c0.9,0,1.6-0.7,1.6-1.6v-3.9c0-0.9-0.7-1.6-1.6-1.6H79v-6.9
		c0-0.1,0-0.3,0-0.4h40.3c5.1,0,9.2-4.1,9.2-9.2V41.2C128.4,36.1,124.3,32,119.2,32z M121.2,93.9c0,1-0.8,1.8-1.8,1.8H31.4
		c-1,0-1.8-0.8-1.8-1.8V41c0-1,0.8-1.8,1.8-1.8h88.1c1,0,1.8,0.8,1.8,1.8V93.9z"/>
	<path class="st2" d="M32.8,48c0,0,2.7-16.2,16.5-16c1.3,0,2.5,0.6,3.3,1.6c0.2,0.3,0.5,0.7,0.7,1.2l4.2,7.3l3.1,5.5
		c0,0,0.5,1.1,1.6,2.2c0,0,2.3,2.6,0,5l-8.6,7.6c0,0-2.4,2.1-0.8,4.8c0,0,6,11.6,13.2,17.8c0,0,6.6,6.7,15.7,11.1
		c0,0,3.5,2.1,5.9-1.3l4.2-5.4c0,0,3.1-4.9,7-2.7l2.6,1.7l11.3,6.5l3.2,1.6c0,0,2.1,0.9,1,5.5c0,0-0.7,6.1-3.5,8.1
		c0,0-10.7,9.8-24.6,5.5c0,0-13.4-4-20.8-9.6c0,0-16.7-11.6-26.9-27.6C41.2,78.5,29.9,61.8,32.8,48z"/>
</g>
</svg>
