<?xml version="1.0" encoding="utf-8"?>
<!-- Generator: Adobe Illustrator 19.2.0, SVG Export Plug-In . SVG Version: 6.00 Build 0)  -->
<svg version="1.1" id="Layer_1" xmlns="http://www.w3.org/2000/svg" xmlns:xlink="http://www.w3.org/1999/xlink" x="0px" y="0px"
	 viewBox="0 0 612 612" style="enable-background:new 0 0 612 612;" xml:space="preserve">
<style type="text/css">
	.st0{fill:#5A5A5C;}
</style>
<path class="st0" d="M590.2,413H541V138.5c0-4.2-3.5-7.5-7.8-7.5H78.8c-4.2,0-7.8,3.2-7.8,7.5V413H21.8c-3.2,0-5.8,2.1-5.8,5.3v57.1
	c0,3.2,2.6,5.5,5.8,5.5h568.4c3.2,0,5.8-2.4,5.8-5.5v-57.1C596,415.1,593.4,413,590.2,413z M81,140h450v273H81V140z M586,472H25.7
	l0.3-0.4V422h50.1c0.8,1,1.7,1,2.7,1h453.6c1,0,1.9,0,2.8-1H586V472z"/>
</svg>
