<svg id="Layer_1" data-name="Layer 1" xmlns="http://www.w3.org/2000/svg" viewBox="0 0 24 16"><defs><style>.cls-1{fill:#fff;}</style></defs><title>user-icon</title><path class="cls-1" d="M10.12,16.06c2.29-.53,4.43-1,3.39-2.94C10.37,7.18,12.68,4,16,4s5.64,3.3,2.49,9.12c-1.07,2,1.15,2.43,3.39,2.94,2,0.46,2.12,1.43,2.12,3.11V20H8C8,17.8,7.83,16.59,10.12,16.06ZM0,20H6c0-6.54,3-3.7,3-8.9A2.86,2.86,0,0,0,6,8c-2.49,0-4.23,2.38-1.87,6.84C4.91,16.3,3.31,16.65,1.59,17,0.1,17.39,0,18.12,0,19.38V20Z" transform="translate(0 -4)"/></svg>