<svg id="Layer_1" xmlns="http://www.w3.org/2000/svg" viewBox="0 0 100 100"><style>.st0{fill:#2ea0dd}</style><path class="st0" d="M22.2 64.6c-1.3 0-3.8-.9-5.3-4.1l-11-28.4c-.1-.1-1-2.1.1-3.7.4-.8 1.5-1.5 3.6-1.6l58.3-.1 5.2-.1 4.4-11.9c.3-1.1 1.6-2.1 2.8-2.1h1.3c1.9 0 5.3-.1 7.7 0h.2c1.9 0 3.5.9 4.4 2.5.9 1.5.9 3.5 0 5-1 1.6-2.7 2.4-4.9 2.4H78.1L63.9 61.3c-.4 1.1-1.7 3-4.4 3.2l-37.3.1zM9.5 30c-.5 0-.8.1-.8.1 0 .1.1.5.2.6l11.2 28.4c1 1.9 2.2 2.2 2.3 2.2l37-.1c1-.1 1.4-1.1 1.4-1.1L72 29.9h-4L9.5 30zm79.7-10.7c.8 0 1.5-.1 1.9-.8.3-.4.2-1.1 0-1.6-.2-.3-.6-.8-1.4-.8h-.3c-2.4-.1-5.6-.1-7.6 0h-1.1l-1.3 3.2h9.8zM80.4 16zM18.5 87.5c-5.4 0-9.7-4.3-9.7-9.7 0-5.4 4.3-9.7 9.7-9.7s9.7 4.3 9.7 9.7c.1 5.3-4.4 9.7-9.7 9.7zm0-16.1c-3.5 0-6.4 2.8-6.4 6.4 0 3.6 2.8 6.4 6.4 6.4s6.4-2.8 6.4-6.4c0-3.6-2.9-6.4-6.4-6.4zm43.6 16.1c-5.4 0-9.7-4.3-9.7-9.7 0-5.4 4.3-9.7 9.7-9.7s9.7 4.3 9.7 9.7c0 5.3-4.3 9.7-9.7 9.7zm0-16.1c-3.5 0-6.4 2.8-6.4 6.4 0 3.6 2.8 6.4 6.4 6.4 3.5 0 6.4-2.8 6.4-6.4 0-3.6-2.9-6.4-6.4-6.4z"/></svg>