<?xml version="1.0" encoding="utf-8"?>
<!-- Generator: Adobe Illustrator 21.1.0, SVG Export Plug-In . SVG Version: 6.00 Build 0)  -->
<svg version="1.1" id="Layer_1" xmlns="http://www.w3.org/2000/svg" xmlns:xlink="http://www.w3.org/1999/xlink" x="0px" y="0px"
	 viewBox="0 0 462 66" style="enable-background:new 0 0 462 66;" xml:space="preserve">
<style type="text/css">
	.st0{clip-path:url(#SVGID_2_);fill:#636466;}
	.st1{clip-path:url(#SVGID_2_);fill:#555759;}
	.st2{fill:#555759;}
	.st3{fill:#81BD41;}
</style>
<g>
	<g>
		<defs>
			<rect id="SVGID_1_" x="11.7" y="2.1" width="437.8" height="62.4"/>
		</defs>
		<clipPath id="SVGID_2_">
			<use xlink:href="#SVGID_1_"  style="overflow:visible;"/>
		</clipPath>
		<path class="st0" d="M443.9,57.8c0.6,0,1-0.1,1-0.8c0-0.6-0.7-0.7-1.2-0.7h-0.9v1.5H443.9 M442.7,61.5h-1.3v-6.3h2.3
			c1.6,0,2.6,0.5,2.6,1.9c0,1.2-0.7,1.6-1.5,1.6l1.6,2.7h-1.6l-1.4-2.6h-0.6V61.5z M443.7,53.9c-2.3,0-4.2,1.8-4.2,4.5
			c0,2.7,1.9,4.5,4.2,4.5v0c2.2,0,4.2-1.8,4.2-4.5C447.8,55.7,445.9,53.9,443.7,53.9 M443.7,64.2c-3.1,0-5.9-2.1-5.9-5.8
			c0-3.7,2.8-5.8,5.9-5.8c3.1,0,5.8,2.1,5.8,5.8C449.5,62,446.7,64.2,443.7,64.2"/>
		<path class="st1" d="M67.3,6.6v56.8h9.1V2.1C76.4,2.1,67.3,1.6,67.3,6.6"/>
		<path class="st1" d="M88.8,6.6v56.8h9.1V2.1C97.9,2.1,88.8,1.6,88.8,6.6"/>
		<path class="st1" d="M422.7,47.3v-7.3h0.1V29h9.2v-8.8h-9.2v-8.7c0,0-9.1-0.5-9.1,4.6v4.2h-5.6V29h5.6v18.3
			c0,11.1,7.2,17.3,18.5,15.9v-8.5C426.3,55.2,422.7,53.6,422.7,47.3"/>
		<path class="st1" d="M33.3,55.7c-6.9,0-12.5-6.1-12.5-13.7c0-7.8,5.6-14,12.5-14c6.8,0,12.7,6.2,12.7,14
			C45.9,49.6,40.1,55.7,33.3,55.7 M46.2,20.2v4.4c-3.2-3.2-7.8-5.5-12.9-5.5c-12.4,0-21.6,10.3-21.6,22.7c0,12.4,9.2,22.6,21.6,22.6
			c5.1,0,9.7-2.3,12.9-5.4c0.1,4.8,8.7,4.4,8.9,4.4l0,0V20.2H46.2z"/>
	</g>
	<path class="st2" d="M281,19.2c-4.1,0-7.8,1.3-10.7,3.8c-0.2-4.7-8.9-4.3-8.9-4.3v44.7h9.1V37.3c0-5.5,4-9.5,9.5-9.5
		c5.7,0,8.8,3.9,8.8,9.7v26h9V37.7C297.9,27.1,291.8,19.2,281,19.2"/>
	<path class="st2" d="M380.8,55.8c-6.7,0-12.5-6.1-12.5-14c0-7.8,5.8-14.1,12.5-14.1c4.4,0,7.9,2.2,10.3,6.1h9.9
		c-3.7-9.5-11-14.7-20.2-14.7c-12,0-21.6,10.2-21.6,22.7c0,12.5,9.7,22.5,21.6,22.5c9.2,0,16.6-5.2,20.2-14.7h-9.9
		C388.8,53.6,385.2,55.8,380.8,55.8"/>
	<path class="st2" d="M329.1,27.7c4.9,0,9.6,3.4,11.6,8.7h-23.3C319.4,30.9,324.4,27.7,329.1,27.7 M329.5,55.9
		c-5.8,0-11.4-4-12.8-11.1h34.2c0.1-16.3-10.6-25.6-21.8-25.6c-12,0-21.7,10.2-21.7,22.7c0,12.6,9.7,22.5,22.1,22.5
		c9.5,0,16.7-4.8,20.4-14.7h-9.8C337.8,53.8,334.3,55.9,329.5,55.9"/>
	<path class="st2" d="M140.7,50.8c-2.4,3.2-5.6,5-9.6,5c-6.7,0-12.5-6.1-12.5-14c0-7.8,5.8-14.1,12.5-14.1c4.4,0,7.9,2.2,10.3,6.1
		h9.9c-3.7-9.5-10.9-14.7-20.2-14.7c-12,0-21.6,10.2-21.6,22.7c0,12.5,9.7,22.5,21.6,22.5c9.2,0,16.6-5.2,20.2-14.7h-9.8
		C141.2,50.1,141,50.4,140.7,50.8"/>
	<path class="st3" d="M234,19.2c-4.1,0-7.8,1.3-10.7,3.8c-0.3-4.7-8.9-4.3-8.9-4.3v44.7h9.1V37.3c0-5.5,4-9.5,9.5-9.5
		c5.7,0,8.8,3.9,8.8,9.7v26h9V37.7C250.9,27.1,244.8,19.2,234,19.2"/>
	<path class="st3" d="M186.4,35.4V10.8c0,0-9.1-0.5-9.1,4.6v24.6C177.3,39.9,186.4,40.4,186.4,35.4"/>
	<path class="st3" d="M192.1,20.7v10.8c2.4,2.5,3.8,5.9,3.8,9.6c0,7.9-6.4,14.3-14.3,14.3c-7.9,0-14.3-6.4-14.3-14.3
		c0-3.9,1.6-7.4,4.2-9.9V20.5c-7.6,3.7-12.9,11.5-12.9,20.6c0,12.7,10.3,23,23,23c12.7,0,23-10.3,23-23
		C204.7,32.2,199.6,24.5,192.1,20.7"/>
</g>
</svg>
