<svg xmlns="http://www.w3.org/2000/svg" viewBox="0 0 158.65 25.57"><defs><style>.a{fill:#20964f;}</style></defs><title>GBR_Logo</title><path class="a" d="M68.25,22.93v0a3.48,3.48,0,0,1,3.14,3.62c0,1.41-.5,4.22-5.32,4.22H59.78V16h6.28c2.49,0,4.76.87,4.76,3.64a3.37,3.37,0,0,1-2.58,3.33h0Zm-7,6.67h4.87c2.1,0,3.91-.69,3.91-3.06,0-1.89-1.43-2.87-3.91-2.87H61.2v5.93h0Zm4.87-12.43H61.2v5.3h4.87c2.27,0,3.35-1.12,3.35-2.51,0-1.85-1.14-2.79-3.35-2.79h0ZM81.51,30.81c-1.33,0-1.54-.75-1.54-1.87h0A4.09,4.09,0,0,1,76,31.12c-2,0-3.6-1-3.6-3.14,0-3,2.93-3.12,5.76-3.45,1.08-.12,1.68-0.27,1.68-1.45,0-1.77-1.27-2.2-2.81-2.2s-2.83.75-2.87,2.49H72.88c0.13-2.52,1.89-3.6,4.35-3.6,1.89,0,4,.58,4,3.45v5.7a0.7,0.7,0,0,0,.77.79,1.24,1.24,0,0,0,.42-0.08v1.1a3.7,3.7,0,0,1-.85.08h0Zm-1.64-5.86h0a1.64,1.64,0,0,1-1.1.48c-2.22.39-5,.38-5,2.47A2.23,2.23,0,0,0,76.13,30a3.45,3.45,0,0,0,3.74-3.37V24.95h0Zm11.26,5.86v-6.7c0-1.85-.6-3.24-2.72-3.24S85.07,22.45,85,24.55v6.26H83.72V20.08H85v1.85h0a3.64,3.64,0,0,1,3.43-2.16c3,0,3.93,1.58,3.93,4.14v6.9H91.12Zm12.67,0h-1.64L97.91,25l-2.12,1.77v4.08H94.48V16h1.31v9.31l5.95-5.2h1.75l-4.58,4,4.89,6.76h0Zm0.9,0V20.08H106V30.81h-1.31Zm0-14.84H106v2.1h-1.31V16h0Zm11,14.84v-6.7c0-1.85-.6-3.24-2.72-3.24s-3.33,1.58-3.37,3.68v6.26h-1.31V20.08h1.31v1.85h0a3.64,3.64,0,0,1,3.43-2.16c3,0,3.93,1.58,3.93,4.14v6.9h-1.31Zm7.66,4.28c-2.14,0-4.26-1-4.45-3.24h1.31c0.29,1.58,1.69,2.14,3.14,2.14,2.41,0,3.45-1.44,3.45-4.05V28.48h0a3.72,3.72,0,0,1-3.41,2.2c-3.43,0-4.85-2.45-4.85-5.51s1.75-5.4,4.85-5.4a3.78,3.78,0,0,1,3.41,2.16h0V20.08h1.31v9.86c0,3.2-1.25,5.16-4.76,5.16h0Zm0-14.22c-2.49,0-3.54,2.22-3.54,4.45s1.12,4.26,3.54,4.26,3.45-2.08,3.45-4.26-1-4.45-3.45-4.45h0ZM139,23.62v0c1.93,0.25,2.49,1.58,2.6,3.35,0.06,1,.06,3.06.69,3.8h-1.56a5.86,5.86,0,0,1-.39-2.31c-0.12-2.08-.29-4.39-3-4.28H132v6.59h-1.41V16h6.8c2.46,0,4.51,1.18,4.51,3.87A3.57,3.57,0,0,1,139,23.62h0Zm-1.73-6.45H132V23h5.28a3,3,0,0,0,3.2-2.89c0-1.81-1.08-3-3.2-3h0Zm15,13.64c-1.33,0-1.54-.75-1.54-1.87h0a4.09,4.09,0,0,1-3.91,2.18c-2,0-3.6-1-3.6-3.14,0-3,2.93-3.12,5.76-3.45,1.08-.12,1.69-0.27,1.69-1.45,0-1.77-1.27-2.2-2.81-2.2s-2.83.75-2.87,2.49h-1.31c0.13-2.52,1.89-3.6,4.34-3.6,1.89,0,4,.58,4,3.45v5.7a0.7,0.7,0,0,0,.77.79,1.25,1.25,0,0,0,.42-0.08v1.1a3.7,3.7,0,0,1-.85.08h0Zm-1.64-5.86h0a1.64,1.64,0,0,1-1.1.48c-2.22.39-5,.38-5,2.47A2.23,2.23,0,0,0,146.9,30a3.45,3.45,0,0,0,3.74-3.37V24.95h0Zm7,4.89a10.28,10.28,0,0,0,1.12-.06v1.12c-0.39,0-.77,0-1.16,0-1.75,0-2.35-.58-2.33-2.41V21.18h-1.87v-1.1h1.87V16.86h1.31v3.22h2.18v1.1H156.6v7.24c0,0.85.13,1.35,1.06,1.41h0Zm11.7-4H161.1c0,1.91,1,4.22,3.53,4.22A3.27,3.27,0,0,0,168,27.28h1.31c-0.56,2.43-2,3.85-4.68,3.85-3.41,0-4.84-2.62-4.84-5.68,0-2.83,1.43-5.68,4.84-5.68s4.82,3,4.72,6h0Zm-4.72-4.93c-2.14,0-3.33,1.87-3.53,3.83H168c-0.06-2-1.29-3.83-3.41-3.83h0Zm10.05,0c-1.16,0-2.54.46-2.54,1.85,0,1.16,1.33,1.58,2.23,1.81l1.74,0.4c1.5,0.23,3.06,1.1,3.06,3,0,2.33-2.31,3.22-4.3,3.22-2.5,0-4.2-1.16-4.41-3.78h1.31c0.1,1.77,1.41,2.68,3.16,2.68,1.23,0,2.93-.54,2.93-2,0-1.25-1.16-1.66-2.35-2l-1.68-.37c-1.71-.46-3-1-3-2.87,0-2.18,2.14-3,4-3,2.14,0,3.85,1.12,3.93,3.45h-1.31c-0.06-1.62-1.31-2.35-2.81-2.35h0Z" transform="translate(-20.53 -11.02)"></path><path class="a" d="M56.65,36.58H20.53V11H56.65V36.58ZM31.15,23.26v1.2H36.2c0.06,3.14-1.85,5.45-5.13,5.45-3.93,0-5.59-3.29-5.59-6.53s1.66-6.53,5.59-6.53a4.63,4.63,0,0,1,4.78,3.72h1.41c-0.54-3.24-3.08-4.93-6.2-4.93-4.68,0-7,3.68-7,7.73s2.33,7.73,7,7.73a5.36,5.36,0,0,0,5.13-3h0l0.19,2.7h1V23.26h-6.3Zm14.95,7.86c4.66,0,7-3.68,7-7.73s-2.33-7.73-7-7.73-7,3.68-7,7.73,2.33,7.73,7,7.73h0Zm0-14.26c3.91,0,5.57,3.29,5.57,6.53S50,29.92,46.09,29.92s-5.59-3.29-5.59-6.53,1.66-6.53,5.59-6.53h0Z" transform="translate(-20.53 -11.02)"></path></svg>