<?xml version="1.0" encoding="iso-8859-1"?>
<!-- Generator: Adobe Illustrator 19.2.1, SVG Export Plug-In . SVG Version: 6.00 Build 0)  -->
<svg version="1.1" id="Layer_1" xmlns="http://www.w3.org/2000/svg" xmlns:xlink="http://www.w3.org/1999/xlink" x="0px" y="0px"
	 viewBox="0 0 731.379 207.027" style="enable-background:new 0 0 731.379 207.027;" xml:space="preserve">
<g id="Logo_1_">
	<path id="Logo_text" style="fill:#2196F3;" d="M720.088,139.25c2.874-4.192,5.302-9.329,7.283-15.203c-3.666,0-17.24,0-17.24,0
		c-3.51,0-6.209,0.701-8.012,2.081c-2.631,2.012-3.032,2.922-3.09,3.083l-0.128,0.379l-2.975,2.961
		c-0.945,0.939-2.011,1.615-3.156,2.028c-4.133,2.364-9.146,3.566-14.909,3.566c-8.973,0-15.833-2.84-20.311-8.355
		c-4.83-5.166-7.452-13.097-7.789-23.567l-0.058-1.752c0,0,78.222,0,81.347,0c0.184-2.65,0.328-5.341,0.328-8.079
		c0-13.369-2.606-25.205-7.763-35.215c-5.265-10.829-13.555-18.537-24.581-22.889c-9.892-3.598-21.199-4.576-33.609-2.913
		c-12.038,1.618-22.008,6.894-29.638,15.699c-4.678,5.261-8.172,11.981-10.387,19.973c-2.294,8.274-3.459,16.641-3.459,24.867
		c0,10.125,1.401,20.008,4.159,29.377c2.638,8.939,7.051,16.114,13.206,21.385c5.839,5.259,13.86,9.054,23.836,11.284
		c10.021,2.241,20.15,2.001,30.192-0.73C704.098,154.902,713.107,148.838,720.088,139.25z M649.761,84.139
		c0.369-9.356,3.213-16.688,8.445-21.793c5.238-5.116,12.042-7.709,20.222-7.709c8.907,0,15.901,2.607,20.795,7.757
		c4.487,4.741,7.135,12.036,7.866,21.682l0.14,1.828h-57.538L649.761,84.139z M557.98,141.662c3.376-4.918,6.184-11.01,8.344-18.102
		c2.163-7.11,3.261-15.752,3.261-25.688c0-13.619-2.66-25.689-7.907-35.877l-0.017-0.034c-5.494-11.294-14.159-19.339-25.714-23.898
		c-10.158-3.696-21.74-4.712-34.419-3.01c-12.531,1.683-22.906,7.178-30.851,16.346c-4.884,5.493-8.524,12.476-10.818,20.747
		c-2.329,8.392-3.51,16.888-3.51,25.251c0,10.25,1.419,20.259,4.214,29.747c2.75,9.318,7.38,16.816,13.79,22.31
		c6.103,5.49,14.415,9.442,24.705,11.741c10.311,2.307,20.688,2.073,30.924-0.717C541.247,158.042,550.676,151.699,557.98,141.662z
		 M512.442,140.725c-9.64,0-17.352-3.779-22.917-11.226c-5.458-7.296-8.225-17.269-8.225-29.647c0-13.37,2.765-23.849,8.225-31.152
		c5.569-7.448,13.635-11.226,23.969-11.226c9.98,0,17.866,3.778,23.475,11.275c5.086,7.296,7.665,17.761,7.665,31.104
		c0,13.07-2.782,23.062-8.225,29.647C530.837,136.947,522.774,140.725,512.442,140.725z M435.412,152.465
		c-11.427,6.788-24.116,10.229-37.712,10.229c-13.218-0.617-25.524-4.376-36.497-11.166c-10.545-6.527-11.655-19.525-12.711-41.941
		c0,0,0.002-69.213,0.002-72.451c2.837,0,23.683,0,26.52,0c0,3.251,0,79.246,0,79.246c0,8.129,2.464,14.188,7.324,18
		c4.734,3.716,10.219,5.599,16.302,5.599c6.068,0,11.626-1.878,16.518-5.581c5.033-3.818,7.586-9.878,7.586-18.018V51.626
		c0-4.031,1.325-7.389,4.055-10.261c2.709-2.845,6.124-4.229,10.437-4.229c0,0,8.998,0,11.578,0c0,3.238,0,72.532,0,72.532
		C447.99,134.359,446.474,145.895,435.412,152.465z M317.059,202.771c2.875,2.865,6.226,4.256,10.24,4.256c0,0,8.505,0,11.055,0
		c0-3.285,0-104.006,0-104.006s0.104-0.068,0.151-0.098c0-0.982,0-55.224,0-63.512c-4.159,4.066-9.799,7.299-16.606,6.101
		l-0.302-0.052l-0.264-0.156c-12.25-7.215-25.619-10.871-39.736-10.871c-8.009,0-15.977,1.482-23.684,4.412
		c-7.627,2.899-13.8,7.137-18.304,12.535c-8.93,11.704-13.459,27.374-13.459,46.581c0,20.15,4.523,36.134,13.457,47.532
		c8.82,11.563,20.701,17.424,35.308,17.424c7.335,0,14.148-1.391,20.157-4.095c5.728-3.02,10.634-7.788,14.581-14.172l3.14-5.082
		v53.004C312.793,196.576,314.187,199.911,317.059,202.771z M304.569,126.954c-5.573,7.446-13.638,11.225-23.97,11.225
		c-9.64,0-17.351-3.778-22.919-11.225c-5.457-7.298-8.223-17.27-8.223-29.647c0-13.372,2.766-23.851,8.223-31.152
		c5.572-7.448,13.637-11.228,23.969-11.228c9.98,0,17.868,3.78,23.478,11.275c5.087,7.298,7.665,17.759,7.665,31.106
		C312.793,110.376,310.008,120.372,304.569,126.954z M577.022,139.137c0-0.263,0-0.531,0.004-0.799c0,0,0-135.027,0-138.338
		c2.607,0,12.05,0,12.05,0c3.694,0,6.886,1.394,9.755,4.261c2.871,2.87,4.264,6.212,4.264,10.218v23.104c0,0,16.751,0,19.58,0
		c0,1.892,0,4.998,0,4.998c0,4.338-1.391,7.768-4.248,10.49c-2.883,2.741-6.247,4.075-10.288,4.075h-5.044v72.145
		c0,3.659,1.465,9.789,11.249,9.789c0,0,5.989,0,8.331,0c0,2.734,0,18.749,0,21.41c-9.959,0.522-20.769,0.376-32.259-0.517
		C580.339,159.188,577.022,154.099,577.022,139.137z"/>
	<path id="Logo_icon" style="fill:#2196F3;" d="M57.993,75.214h38.156v38.162c0,0-14.271,0-17.222,0c0,2.952,0,17.229,0,17.229
		h-1.854c-12.482,0-19.08-6.598-19.08-19.083V75.214z M109.672,111.522c0,12.484,6.596,19.083,19.075,19.083h1.852
		c0,0,0-14.277,0-17.229c2.952,0,17.226,0,17.226,0V75.214h-38.152V111.522z M175.927,175.25c6.58,0,29.894,0,29.894,0v30.566
		H102.91c-28.348,0-52.846-10.122-72.813-30.085C10.125,155.755,0,131.256,0,102.912c0-28.208,10.125-52.707,30.096-72.819
		C50.073,10.125,74.57,0,102.91,0c28.199,0,52.696,10.122,72.819,30.097c19.97,20.111,30.092,44.609,30.092,72.815
		C205.821,131.141,195.686,155.417,175.927,175.25z M175.041,102.912c0-19.792-7.117-36.94-21.158-50.972
		c-14.034-14.039-31.184-21.157-50.973-21.157c-19.927,0-37.146,7.118-51.178,21.157C37.688,65.973,30.57,83.124,30.57,102.912
		c0,19.929,7.118,37.15,21.161,51.184c14.037,14.036,31.255,21.154,51.178,21.154c19.783,0,36.935-7.118,50.973-21.155
		C167.923,140.064,175.041,122.842,175.041,102.912z"/>
</g>
<text transform="matrix(1 0 0 1 575.0762 201.5964)" style="fill:#2196F3; font-family:'ProximaNova-Extrabld'; font-size:69.7756px;">.com</text>
</svg>
